<svg xmlns="http://www.w3.org/2000/svg" xmlns:svg="http://www.w3.org/2000/svg" viewBox="0 0 543.8 713.22"><defs><svg:style>.wb-1{fill:#ffff;}.wb-2{fill:#8d8d8d;}</svg:style></defs><path class="wb-1" d="M543.47,705.57c29.78-72.45,11.57-131.91-33-174.45a165.13,165.13,0,0,0-18.78-15.46h0v0c-1.14-.86-2.23-1.66-3.42-2.47-27.5-18.78-61.88-31.44-100.67-36.51,128.18,205.13-59.36,271.61-68.18,273.89,52.72-52.35,20.91-85.55,14.17-117.36,1.81,58-88.29,129-156.29,144.39h0c-.24-.1-.43-.24-.67-.34-1.75-.9-3.51-1.8-5.21-2.7s-3.09-1.66-4.6-2.56C26.56,693.53,25.56,517.13,40.83,457,53,409.07,93.66,347.56,99.92,337.46a710.36,710.36,0,0,1,43.62-62.82c.19.37.71.8.66,1.42C143,397.31,187.92,455.35,195.94,455.77c6.87.38-30.78-96.64,38.12-248.66A500.58,500.58,0,0,1,358.39,64.33c-3.08,52.16-36.6,138.8,40,211.73,93.32,88.81,138.47,122.2,169.24,224C586.9,563.79,580.12,643.36,543.47,705.57Z" transform="translate(-34.35 -64.33)"/><path class="wb-2" d="M488.27,513.15c-27.5-18.78-61.88-31.44-100.67-36.51,128.18,205.13-59.36,271.61-68.18,273.89,52.72-52.35,20.91-85.55,14.17-117.36,1.81,58-88.29,129-156.29,144.39h0c-.24-.1-.43-.24-.67-.34-1.75-.9-3.51-1.8-5.21-2.7s-3.09-1.66-4.6-2.56C145.3,742.37,141.6,702.4,143.73,666.6c2.66-43.87,17.55-100.2,90.66-162.36,113.38-96.41,78.29-180.19,37.89-212.44C387.13,327.93,457,411.06,487.47,502.1c1.51,4.51,2.94,9,4.22,13.52C490.55,514.76,489.46,514,488.27,513.15Z" transform="translate(-34.35 -64.33)"/></svg>
