<?xml version="1.0" standalone="no"?>
<!DOCTYPE svg PUBLIC "-//W3C//DTD SVG 20010904//EN"
 "http://www.w3.org/TR/2001/REC-SVG-20010904/DTD/svg10.dtd">
<svg version="1.0" xmlns="http://www.w3.org/2000/svg"
 width="1556.000000pt" height="1556.000000pt" viewBox="0 0 1556.000000 1556.000000"
 preserveAspectRatio="xMidYMid meet">
<metadata>
Created by potrace 1.11, written by Peter Selinger 2001-2013
</metadata>
<g transform="translate(0.000000,1556.000000) scale(0.100000,-0.100000)"
fill="#000000" stroke="none">
<path d="M8838 15543 c-1 -5 -48 -44 -103 -87 -55 -44 -102 -82 -105 -86 -3
-3 -30 -25 -60 -50 -331 -272 -871 -803 -1158 -1140 -16 -19 -59 -69 -94 -110
-35 -41 -82 -97 -103 -125 -22 -27 -42 -52 -45 -55 -3 -3 -41 -50 -84 -105
-42 -55 -84 -108 -92 -118 -21 -26 -158 -213 -227 -310 -96 -135 -307 -455
-307 -466 0 -5 -4 -11 -8 -13 -13 -5 -186 -298 -211 -358 -13 -30 -34 -77 -46
-105 -70 -154 -295 -730 -295 -755 0 -6 -4 -18 -10 -28 -28 -51 -162 -496
-240 -798 -42 -164 -114 -490 -125 -569 -2 -11 -8 -47 -14 -80 -6 -33 -13 -69
-15 -80 -2 -11 -6 -41 -10 -66 -4 -25 -9 -57 -11 -70 -6 -38 -13 -90 -20 -144
-4 -27 -8 -61 -11 -75 -2 -14 -6 -54 -10 -90 -3 -36 -7 -81 -9 -100 -25 -220
-38 -476 -38 -745 0 -220 9 -512 17 -565 2 -14 7 -61 10 -105 11 -147 17 -198
32 -312 9 -74 13 -101 19 -158 4 -33 9 -63 11 -66 7 -12 16 -189 10 -204 -5
-15 -10 -14 -47 7 -23 13 -70 53 -104 91 -62 66 -205 266 -205 285 0 6 -3 12
-7 14 -30 13 -242 457 -314 658 -73 201 -177 543 -196 644 -2 11 -11 47 -19
80 -9 34 -17 68 -19 76 -2 8 -10 49 -19 90 -8 41 -17 89 -20 105 -3 17 -8 41
-10 55 -15 79 -36 211 -41 250 -3 25 -7 52 -10 60 -2 8 -7 42 -10 75 -3 33 -8
74 -10 90 -2 17 -7 55 -10 85 -3 30 -7 69 -9 85 -2 17 -7 71 -11 120 -3 50 -8
110 -10 135 -8 104 -18 348 -20 535 -2 110 -3 206 -4 213 -2 21 -15 13 -41
-24 -14 -19 -30 -41 -35 -47 -27 -31 -202 -267 -295 -397 -175 -246 -339 -491
-552 -830 -262 -416 -302 -482 -453 -745 -44 -77 -83 -141 -87 -143 -5 -2 -8
-12 -8 -22 0 -10 -4 -21 -9 -24 -5 -3 -18 -23 -29 -43 -10 -21 -43 -83 -72
-138 -120 -226 -264 -525 -335 -695 -15 -36 -33 -78 -40 -95 -77 -176 -189
-527 -226 -710 -7 -33 -14 -64 -15 -70 -13 -57 -52 -336 -60 -425 -3 -41 -7
-91 -9 -110 -25 -235 -25 -951 0 -1135 2 -16 6 -69 10 -116 3 -47 7 -97 10
-110 2 -13 6 -50 10 -83 4 -32 8 -68 10 -80 2 -11 6 -39 9 -61 3 -22 10 -74
16 -115 6 -41 13 -84 14 -95 31 -206 121 -601 191 -835 240 -806 599 -1487
1100 -2085 105 -126 375 -402 484 -495 36 -30 72 -62 80 -70 36 -33 212 -171
300 -235 319 -230 706 -447 1041 -585 69 -28 134 -55 145 -61 83 -38 481 -169
655 -214 105 -28 341 -85 380 -91 14 -3 59 -12 100 -20 41 -9 86 -17 100 -19
14 -2 39 -6 55 -9 36 -6 80 -14 183 -31 15 -2 50 -7 77 -10 28 -3 68 -8 90
-11 73 -10 89 -12 160 -19 39 -4 81 -8 95 -10 22 -3 113 -12 210 -20 299 -27
1066 -26 1320 0 19 2 69 6 110 10 41 3 89 8 105 10 17 2 59 7 95 11 36 3 74 8
85 10 11 2 40 7 65 10 50 6 82 11 120 19 13 2 40 7 60 10 20 3 47 8 60 11 22
4 58 11 148 29 13 2 31 6 40 9 9 3 28 7 42 10 14 2 43 9 65 14 22 6 52 13 67
16 112 19 576 177 748 254 255 114 487 241 690 379 101 69 286 208 310 233 3
3 41 37 85 75 87 76 227 214 315 310 416 455 744 1022 965 1665 68 197 164
546 181 660 3 19 9 51 14 70 5 20 12 51 14 70 3 19 7 45 10 57 2 11 8 43 12
70 3 26 8 56 10 67 2 10 6 44 9 75 4 31 8 63 10 71 2 8 7 51 11 95 3 44 8 88
10 98 8 47 17 293 18 492 0 190 -4 292 -18 490 -3 41 -15 151 -21 195 -2 14
-7 50 -10 80 -4 30 -9 64 -11 75 -2 11 -6 36 -9 55 -3 19 -7 46 -10 60 -2 14
-7 36 -10 50 -2 14 -7 41 -10 60 -20 126 -110 456 -190 695 -82 248 -131 383
-176 490 -5 11 -25 61 -45 110 -117 292 -342 720 -520 991 -110 167 -373 526
-414 564 -3 3 -25 30 -50 60 -41 50 -79 94 -105 124 -5 6 -28 31 -49 56 -211
243 -797 831 -1226 1230 -25 23 -105 99 -179 169 -73 69 -145 137 -160 150
-30 28 -285 267 -415 391 -315 298 -471 476 -635 726 -95 145 -102 158 -173
293 -77 148 -189 424 -213 529 -3 9 -18 69 -34 132 -16 63 -32 129 -35 145 -3
17 -7 40 -10 52 -2 11 -8 43 -12 70 -3 26 -8 55 -9 63 -3 14 -9 65 -21 165
-26 227 -22 636 11 960 4 39 8 84 9 100 3 27 11 93 21 165 2 14 7 49 10 79 4
30 8 61 10 70 1 9 6 41 10 71 4 30 9 64 11 75 2 11 7 40 10 65 3 25 7 52 9 60
2 8 7 38 10 65 3 28 10 73 15 100 5 28 12 74 15 104 4 30 8 63 10 73 2 11 7
49 11 86 3 36 7 73 9 82 11 57 16 190 7 190 -6 0 -12 -3 -14 -7z"/>
</g>
</svg>
